<?xml version="1.0" encoding="UTF-8" standalone="no"?>
<svg
   xmlns:dc="http://purl.org/dc/elements/1.1/"
   xmlns:cc="http://creativecommons.org/ns#"
   xmlns:rdf="http://www.w3.org/1999/02/22-rdf-syntax-ns#"
   xmlns:svg="http://www.w3.org/2000/svg"
   xmlns="http://www.w3.org/2000/svg"
   xmlns:sodipodi="http://sodipodi.sourceforge.net/DTD/sodipodi-0.dtd"
   xmlns:inkscape="http://www.inkscape.org/namespaces/inkscape"
   version="1.1"
   id="layer"
   x="0px"
   y="0px"
   viewBox="0 0 60.748322 18.201594"
   xml:space="preserve"
   sodipodi:docname="bit.svg"
   width="60.748322"
   height="18.201593"
   inkscape:version="1.0.2 (e86c8708, 2021-01-15)"><metadata
   id="metadata48"><rdf:RDF><cc:Work
       rdf:about=""><dc:format>image/svg+xml</dc:format><dc:type
         rdf:resource="http://purl.org/dc/dcmitype/StillImage" /><dc:title></dc:title></cc:Work></rdf:RDF></metadata><defs
   id="defs46">
		
		
		
		
		
		
		
		
		
		
		
		
			<linearGradient
   id="SVGID_1_"
   gradientUnits="userSpaceOnUse"
   x1="108.3535"
   y1="333.19919"
   x2="66.383102"
   y2="300.44281"
   gradientTransform="matrix(1,0,0,-1,0,652)">
			<stop
   offset="0.18"
   style="stop-color:#0052CC"
   id="stop34" />
			<stop
   offset="1"
   style="stop-color:#2684FF"
   id="stop36" />
		</linearGradient>
		
	</defs><sodipodi:namedview
   pagecolor="#ffffff"
   bordercolor="#666666"
   borderopacity="1"
   objecttolerance="10"
   gridtolerance="10"
   guidetolerance="10"
   inkscape:pageopacity="0"
   inkscape:pageshadow="2"
   inkscape:window-width="1280"
   inkscape:window-height="800"
   id="namedview44"
   showgrid="false"
   inkscape:zoom="4.9193809"
   inkscape:cx="27.038814"
   inkscape:cy="17.285526"
   inkscape:window-x="0"
   inkscape:window-y="0"
   inkscape:window-maximized="0"
   inkscape:current-layer="Layer_2"
   fit-margin-top="0"
   fit-margin-left="0"
   fit-margin-right="0"
   fit-margin-bottom="0" />
<style
   type="text/css"
   id="style10">
	.st0{fill:#253858;}
	.st1{fill:none;}
	.st2{fill:#2684FF;}
	.st3{fill:url(#SVGID_1_);}
</style>
<g
   id="Layer_2"
   transform="translate(-136.06348,-311.53584)">
	<path
   style="fill:#000080;stroke:#000000;stroke-width:0.377953"
   d="m 157.53792,329.54846 h 34.08491 c 2.77,0 5,-2.23 5,-5 v -7.82364 c 0,-2.77 -2.23,-5 -5,-5 h -34.08268 v 17.72865"
   id="path80" /><path
   style="fill:#000000;stroke:#000000;stroke-width:0.377953"
   d="m 157.54015,311.72482 h -16.28769 c -2.77,0 -5,2.23 -5,5 v 7.82364 c 0,2.77 2.23,5 5,5 h 16.28546"
   id="rect67" /><g
   id="g75"><g
     id="g86"
     transform="translate(-0.40655522)"><g
       id="g65"
       transform="matrix(0.13157895,0,0,0.13157895,139.8853,277.9656)"><polygon
         class="st1"
         points="50.5,311.8 55.2,336.7 72.8,336.7 77.1,311.8 "
         id="polygon30" /><path
         class="st2"
         d="m 24.4,286.3 c -1.5,0 -2.7,1.2 -2.7,2.7 0,0.2 0,0.3 0,0.5 l 11.5,69.7 c 0.3,1.8 1.8,3.1 3.6,3.1 h 55.1 c 1.3,0 2.5,-0.9 2.7,-2.3 l 11.5,-70.5 c 0.2,-1.5 -0.8,-2.9 -2.2,-3.1 -0.2,0 -0.3,0 -0.5,0 z m 48.4,50.4 H 55.2 L 50.4,311.8 H 77 Z"
         id="path32" /><path
         class="st3"
         d="M 102.5,311.8 H 77.1 l -4.3,24.9 H 55.2 l -20.8,24.7 c 0.7,0.6 1.5,0.9 2.4,0.9 h 55.1 c 1.3,0 2.5,-0.9 2.7,-2.3 z"
         id="path39"
         style="fill:url(#SVGID_1_)" /></g></g><text
     xml:space="preserve"
     style="font-style:normal;font-variant:normal;font-weight:normal;font-stretch:normal;font-size:13.3333px;line-height:1.25;font-family:'Century Gothic';-inkscape-font-specification:'Century Gothic';fill:#ffffff"
     x="162.17455"
     y="325.42505"
     id="text52"><tspan
       sodipodi:role="line"
       id="tspan50"
       x="162.17455"
       y="325.42505">0.3.0</tspan></text></g>
</g>
</svg>
