<?xml version="1.0" encoding="UTF-8" standalone="no"?>
<svg
   xmlns:dc="http://purl.org/dc/elements/1.1/"
   xmlns:cc="http://creativecommons.org/ns#"
   xmlns:rdf="http://www.w3.org/1999/02/22-rdf-syntax-ns#"
   xmlns:svg="http://www.w3.org/2000/svg"
   xmlns="http://www.w3.org/2000/svg"
   xmlns:sodipodi="http://sodipodi.sourceforge.net/DTD/sodipodi-0.dtd"
   xmlns:inkscape="http://www.inkscape.org/namespaces/inkscape"
   version="1.1"
   id="layer"
   x="0px"
   y="0px"
   viewBox="0 0 60.748322 18.201594"
   xml:space="preserve"
   sodipodi:docname="git.svg"
   width="60.748322"
   height="18.201593"
   inkscape:version="1.0.2 (e86c8708, 2021-01-15)"><metadata
   id="metadata48"><rdf:RDF><cc:Work
       rdf:about=""><dc:format>image/svg+xml</dc:format><dc:type
         rdf:resource="http://purl.org/dc/dcmitype/StillImage" /><dc:title></dc:title></cc:Work></rdf:RDF></metadata><defs
   id="defs46">
		
		
		
		
		
		
		
		
		
		
		
		
			<linearGradient
   id="SVGID_1_"
   gradientUnits="userSpaceOnUse"
   x1="108.3535"
   y1="333.19919"
   x2="66.383102"
   y2="300.44281"
   gradientTransform="matrix(1,0,0,-1,0,652)">
			<stop
   offset="0.18"
   style="stop-color:#0052CC"
   id="stop34" />
			<stop
   offset="1"
   style="stop-color:#2684FF"
   id="stop36" />
		</linearGradient>
		
	</defs><sodipodi:namedview
   pagecolor="#ffffff"
   bordercolor="#666666"
   borderopacity="1"
   objecttolerance="10"
   gridtolerance="10"
   guidetolerance="10"
   inkscape:pageopacity="0"
   inkscape:pageshadow="2"
   inkscape:window-width="1280"
   inkscape:window-height="800"
   id="namedview44"
   showgrid="false"
   fit-margin-top="0"
   fit-margin-left="0"
   fit-margin-right="0"
   fit-margin-bottom="0"
   inkscape:zoom="4.9193809"
   inkscape:cx="26.849837"
   inkscape:cy="17.09655"
   inkscape:window-x="0"
   inkscape:window-y="0"
   inkscape:window-maximized="0"
   inkscape:current-layer="g75" />
<style
   type="text/css"
   id="style10">
	.st0{fill:#253858;}
	.st1{fill:none;}
	.st2{fill:#2684FF;}
	.st3{fill:url(#SVGID_1_);}
</style>
<g
   id="Layer_2"
   transform="translate(-136.06348,-311.53584)">
	<path
   style="fill:#ffffff;stroke:#000000;stroke-width:0.377953"
   d="m 157.54015,311.72482 h -16.28769 c -2.77,0 -5,2.23 -5,5 v 7.82364 c 0,2.77 2.23,5 5,5 h 16.28546"
   id="rect67" />
<path
   style="fill:#cdde87;stroke:#000000;stroke-width:0.377953"
   d="m 157.53792,329.54846 h 34.08491 c 2.77,0 5,-2.23 5,-5 v -7.82364 c 0,-2.77 -2.23,-5 -5,-5 h -34.08268 v 17.72865"
   id="path80" /><g
   id="g75"><text
     xml:space="preserve"
     style="font-style:normal;font-variant:normal;font-weight:normal;font-stretch:normal;font-size:13.3333px;line-height:1.25;font-family:'Century Gothic';-inkscape-font-specification:'Century Gothic';fill:#000000"
     x="162.17455"
     y="325.42505"
     id="text52"><tspan
       sodipodi:role="line"
       id="tspan50"
       x="162.17455"
       y="325.42505">0.3.0</tspan></text><path
     fill-rule="evenodd"
     clip-rule="evenodd"
     fill="#181616"
     d="m 147.49511,315.63665 c -2.84095,0 -5.13425,2.2933 -5.13425,5.13425 0,2.25908 1.47182,4.17586 3.52552,4.86043 0.27383,0.0342 0.34228,-0.10268 0.34228,-0.2396 v -0.88994 c -1.43759,0.30806 -1.74564,-0.68456 -1.74564,-0.68456 -0.2396,-0.58188 -0.58188,-0.75303 -0.58188,-0.75303 -0.4792,-0.30805 0.0342,-0.30805 0.0342,-0.30805 0.51343,0.0342 0.78726,0.51342 0.78726,0.51342 0.44497,0.78726 1.19799,0.54766 1.50604,0.41074 0.0342,-0.34228 0.17115,-0.54765 0.34229,-0.68456 -1.12954,-0.13692 -2.32753,-0.58189 -2.32753,-2.5329 0,-0.54766 0.20537,-1.02685 0.51343,-1.36914 -0.0685,-0.13691 -0.2396,-0.65033 0.0342,-1.36913 0,0 0.44497,-0.13691 1.40337,0.51343 0.41074,-0.10269 0.8557,-0.17115 1.30067,-0.17115 0.44497,0 0.88994,0.0685 1.30068,0.17115 0.99262,-0.65034 1.40336,-0.51343 1.40336,-0.51343 0.27383,0.7188 0.10269,1.23222 0.0342,1.36913 0.34229,0.34229 0.51343,0.82148 0.51343,1.36914 0,1.98524 -1.19799,2.39598 -2.32753,2.5329 0.17114,0.17114 0.34228,0.47919 0.34228,0.95839 v 1.40336 c 0,0.13692 0.10269,0.30806 0.34229,0.2396 2.0537,-0.68457 3.49129,-2.60135 3.49129,-4.86042 0.0342,-2.80673 -2.25907,-5.10003 -5.10003,-5.10003 z"
     id="path152"
     style="stroke-width:0.342284" /></g></g>
</svg>
