<?xml version="1.0" encoding="UTF-8" standalone="no"?>
<svg
   xmlns:dc="http://purl.org/dc/elements/1.1/"
   xmlns:cc="http://creativecommons.org/ns#"
   xmlns:rdf="http://www.w3.org/1999/02/22-rdf-syntax-ns#"
   xmlns:svg="http://www.w3.org/2000/svg"
   xmlns="http://www.w3.org/2000/svg"
   xmlns:sodipodi="http://sodipodi.sourceforge.net/DTD/sodipodi-0.dtd"
   xmlns:inkscape="http://www.inkscape.org/namespaces/inkscape"
   version="1.1"
   id="layer"
   x="0px"
   y="0px"
   viewBox="0 0 60.748322 18.201594"
   xml:space="preserve"
   sodipodi:docname="pypi.svg"
   width="60.748322"
   height="18.201593"
   inkscape:version="1.0.2 (e86c8708, 2021-01-15)"><metadata
   id="metadata48"><rdf:RDF><cc:Work
       rdf:about=""><dc:format>image/svg+xml</dc:format><dc:type
         rdf:resource="http://purl.org/dc/dcmitype/StillImage" /><dc:title></dc:title></cc:Work></rdf:RDF></metadata><defs
   id="defs46">
		
		
		
		
		
		
		
		
		
		
		
		
			<linearGradient
   id="SVGID_1_"
   gradientUnits="userSpaceOnUse"
   x1="108.3535"
   y1="333.19919"
   x2="66.383102"
   y2="300.44281"
   gradientTransform="matrix(1,0,0,-1,0,652)">
			<stop
   offset="0.18"
   style="stop-color:#0052CC"
   id="stop34" />
			<stop
   offset="1"
   style="stop-color:#2684FF"
   id="stop36" />
		</linearGradient>
		
	</defs><sodipodi:namedview
   pagecolor="#ffffff"
   bordercolor="#666666"
   borderopacity="1"
   objecttolerance="10"
   gridtolerance="10"
   guidetolerance="10"
   inkscape:pageopacity="0"
   inkscape:pageshadow="2"
   inkscape:window-width="1280"
   inkscape:window-height="800"
   id="namedview44"
   showgrid="false"
   inkscape:zoom="4.9193809"
   inkscape:cx="27.038814"
   inkscape:cy="17.285526"
   inkscape:window-x="0"
   inkscape:window-y="0"
   inkscape:window-maximized="0"
   inkscape:current-layer="Layer_2"
   fit-margin-top="0"
   fit-margin-left="0"
   fit-margin-right="0"
   fit-margin-bottom="0" />
<style
   type="text/css"
   id="style10">
	.st0{fill:#253858;}
	.st1{fill:none;}
	.st2{fill:#2684FF;}
	.st3{fill:url(#SVGID_1_);}
</style>
<g
   id="Layer_2"
   transform="translate(-136.06348,-311.53584)">
	<path
   style="fill:#ffd242;stroke:#000000;stroke-width:0.377953;fill-opacity:1"
   d="m 157.53792,329.54846 h 34.08491 c 2.77,0 5,-2.23 5,-5 v -7.82364 c 0,-2.77 -2.23,-5 -5,-5 h -34.08268 v 17.72865"
   id="path80" /><path
   style="fill:#3775a9;stroke:#000000;stroke-width:0.377953;fill-opacity:1"
   d="m 157.54015,311.72482 h -16.28769 c -2.77,0 -5,2.23 -5,5 v 7.82364 c 0,2.77 2.23,5 5,5 h 16.28546"
   id="rect67" /><text
   xml:space="preserve"
   style="font-style:normal;font-variant:normal;font-weight:normal;font-stretch:normal;font-size:13.33329999999999949px;line-height:1.25;font-family:'Century Gothic';-inkscape-font-specification:'Century Gothic';fill:#000000;"
   x="162.17455"
   y="325.42505"
   id="text52"><tspan
     sodipodi:role="line"
     id="tspan50"
     x="162.17455"
     y="325.42505">0.3.0</tspan></text>
<g
   id="g946"
   transform="matrix(0.17241054,0,0,0.17241054,142.21497,315.63675)"><g
     fill="#a29d86"
     stroke="#cccccc"
     stroke-width="0.214"
     stroke-linejoin="bevel"
     id="g569"><path
       d="m 18.93,18.826 9.323,3.394 V 33.177 L 18.93,29.783 Z"
       style="isolation:auto;mix-blend-mode:normal"
       color="#000000"
       overflow="visible"
       fill="#e9e9ff"
       id="path533" /><path
       d="m 9.47,22.27 v 10.957 l 9.46,-3.444 V 18.826 Z"
       style="isolation:auto;mix-blend-mode:normal"
       color="#000000"
       overflow="visible"
       fill="#353564"
       id="path535" /><path
       d="m 9.47,33.227 9.322,3.393 9.46,-3.443 -9.322,-3.394 z"
       style="isolation:auto;mix-blend-mode:normal"
       color="#000000"
       overflow="visible"
       fill="#afafde"
       id="path537" /><path
       d="m 9.47,22.27 9.322,3.393 9.46,-3.443 -9.322,-3.394 z"
       fill="#f7f7f4"
       id="path539" /><path
       d="M 18.792,25.663 V 36.62 l 9.46,-3.443 V 22.22 Z"
       fill="#ffffff"
       id="path541" /><path
       d="m 9.47,22.27 9.322,3.393 V 36.62 L 9.47,33.227 Z"
       fill="#efeeea"
       id="path543" /><path
       style="isolation:auto;mix-blend-mode:normal"
       d="m 28.293,11.166 9.323,3.393 v 10.957 l -9.323,-3.393 z"
       color="#000000"
       overflow="visible"
       fill="#e9e9ff"
       id="path545" /><path
       style="isolation:auto;mix-blend-mode:normal"
       d="m 18.833,14.609 v 10.957 l 9.46,-3.443 V 11.166 Z"
       color="#000000"
       overflow="visible"
       fill="#353564"
       id="path547" /><path
       style="isolation:auto;mix-blend-mode:normal"
       d="m 18.833,25.566 9.322,3.393 9.461,-3.443 -9.323,-3.393 z"
       color="#000000"
       overflow="visible"
       fill="#afafde"
       id="path549" /><path
       d="m 18.833,14.609 9.322,3.393 9.461,-3.443 -9.323,-3.393 z"
       fill="#f7f7f4"
       id="path551" /><path
       d="M 28.155,18.002 V 28.96 l 9.461,-3.443 V 14.559 Z"
       fill="#ffffff"
       id="path553" /><path
       d="m 18.833,14.609 9.322,3.393 V 28.96 l -9.322,-3.393 z"
       fill="#efeeea"
       id="path555" /><path
       d="m 9.567,33.297 9.322,3.393 V 47.647 L 9.567,44.254 Z"
       style="isolation:auto;mix-blend-mode:normal"
       color="#000000"
       overflow="visible"
       fill="#e9e9ff"
       id="path557" /><path
       d="m 0.106,36.74 v 10.957 l 9.46,-3.443 V 33.297 Z"
       style="isolation:auto;mix-blend-mode:normal"
       color="#000000"
       overflow="visible"
       fill="#353564"
       id="path559" /><path
       d="M 0.106,47.697 9.43,51.09 18.89,47.647 9.568,44.254 Z"
       style="isolation:auto;mix-blend-mode:normal"
       color="#000000"
       overflow="visible"
       fill="#afafde"
       id="path561" /><path
       d="m 0.106,36.74 9.323,3.393 9.46,-3.443 -9.322,-3.393 z"
       fill="#f7f7f4"
       id="path563" /><path
       d="M 9.429,40.133 V 51.09 l 9.46,-3.443 V 36.69 Z"
       fill="#ffffff"
       id="path565" /><path
       d="m 0.106,36.74 9.323,3.393 V 51.09 L 0.106,47.697 Z"
       fill="#efeeea"
       id="path567" /></g><g
     fill="#a29d86"
     stroke="#cccccc"
     stroke-width="0.214"
     stroke-linejoin="bevel"
     id="g583"><path
       style="isolation:auto;mix-blend-mode:normal"
       d="m 18.93,36.702 9.323,3.393 V 51.052 L 18.93,47.659 Z"
       color="#000000"
       overflow="visible"
       fill="#e9e9ff"
       id="path571" /><path
       style="isolation:auto;mix-blend-mode:normal"
       d="m 9.47,40.145 v 10.957 l 9.46,-3.443 V 36.702 Z"
       color="#000000"
       overflow="visible"
       fill="#353564"
       id="path573" /><path
       style="isolation:auto;mix-blend-mode:normal"
       d="m 9.47,51.102 9.322,3.393 9.46,-3.443 -9.322,-3.393 z"
       color="#000000"
       overflow="visible"
       fill="#afafde"
       id="path575" /><path
       d="m 9.47,40.145 9.322,3.393 9.46,-3.443 -9.322,-3.393 z"
       fill="#f7f7f4"
       id="path577" /><path
       d="m 18.792,43.538 v 10.957 l 9.46,-3.443 V 40.095 Z"
       fill="#ffffff"
       id="path579" /><path
       d="m 9.47,40.145 9.322,3.393 V 54.495 L 9.47,51.102 Z"
       fill="#efeeea"
       id="path581" /></g><g
     fill="#a29d86"
     stroke="#cccccc"
     stroke-width="0.214"
     stroke-linejoin="bevel"
     id="g597"><path
       d="m 18.93,25.636 9.323,3.393 V 39.986 L 18.93,36.593 Z"
       style="isolation:auto;mix-blend-mode:normal"
       color="#000000"
       overflow="visible"
       fill="#e9e9ff"
       id="path585" /><path
       d="m 9.47,29.08 v 10.956 l 9.46,-3.443 V 25.636 Z"
       style="isolation:auto;mix-blend-mode:normal"
       color="#000000"
       overflow="visible"
       fill="#353564"
       id="path587" /><path
       d="m 9.47,40.036 9.322,3.394 9.46,-3.444 -9.322,-3.393 z"
       style="isolation:auto;mix-blend-mode:normal"
       color="#000000"
       overflow="visible"
       fill="#afafde"
       id="path589" /><path
       d="m 9.47,29.08 9.322,3.393 9.46,-3.444 -9.322,-3.393 z"
       fill="#f7f7f4"
       id="path591" /><path
       d="M 18.792,32.473 V 43.43 l 9.46,-3.444 V 29.03 Z"
       fill="#ffffff"
       id="path593" /><path
       d="m 9.47,29.08 9.322,3.393 V 43.43 L 9.47,40.036 Z"
       fill="#efeeea"
       id="path595" /></g><g
     fill="#a29d86"
     stroke="#cccccc"
     stroke-width="0.214"
     stroke-linejoin="bevel"
     id="g611"><path
       style="isolation:auto;mix-blend-mode:normal"
       d="m 56.383,29.892 9.323,3.393 v 10.957 l -9.323,-3.393 z"
       color="#000000"
       overflow="visible"
       fill="#e9e9ff"
       id="path599" /><path
       style="isolation:auto;mix-blend-mode:normal"
       d="m 46.923,33.335 v 10.957 l 9.46,-3.443 V 29.892 Z"
       color="#000000"
       overflow="visible"
       fill="#353564"
       id="path601" /><path
       style="isolation:auto;mix-blend-mode:normal"
       d="m 46.923,44.292 9.322,3.394 9.46,-3.444 -9.322,-3.393 z"
       color="#000000"
       overflow="visible"
       fill="#afafde"
       id="path603" /><path
       d="m 46.923,33.335 9.322,3.394 9.46,-3.444 -9.322,-3.393 z"
       fill="#f7f7f4"
       id="path605" /><path
       d="m 56.245,36.729 v 10.957 l 9.46,-3.444 V 33.285 Z"
       fill="#ffffff"
       id="path607" /><path
       d="m 46.923,33.335 9.322,3.394 v 10.957 l -9.322,-3.394 z"
       fill="#efeeea"
       id="path609" /></g><g
     transform="matrix(0.65177,0,0,0.65177,-1683.66,-513.275)"
     id="g629"><g
       fill="#a29d86"
       stroke="#cccccc"
       stroke-width="0.328"
       stroke-linejoin="bevel"
       id="g625"><path
         style="isolation:auto;mix-blend-mode:normal"
         d="m 2655.349,838.594 14.303,5.206 v 16.811 l -14.303,-5.206 z"
         color="#000000"
         overflow="visible"
         fill="#e9e9ff"
         id="path613" /><path
         style="isolation:auto;mix-blend-mode:normal"
         d="m 2640.834,843.877 v 16.811 l 14.515,-5.283 v -16.81 z"
         color="#000000"
         overflow="visible"
         fill="#353564"
         id="path615" /><path
         style="isolation:auto;mix-blend-mode:normal"
         d="m 2640.834,860.688 14.303,5.206 14.515,-5.283 -14.303,-5.206 z"
         color="#000000"
         overflow="visible"
         fill="#afafde"
         id="path617" /><path
         d="m 2640.834,843.877 14.303,5.206 14.515,-5.283 -14.303,-5.206 z"
         fill="#f7f7f4"
         id="path619" /><path
         d="m 2655.137,849.083 v 16.811 l 14.515,-5.283 v -16.81 z"
         fill="#ffd242"
         id="path621" /><path
         d="m 2640.834,843.877 14.303,5.206 v 16.811 l -14.303,-5.206 z"
         fill="#efeeea"
         id="path623" /></g><circle
       transform="matrix(0.9397,-0.34202283,0,1,0,0)"
       cy="1823.899"
       cx="2835.218"
       r="2.967"
       fill="#ffffff"
       id="circle627" /></g><g
     fill="#a29d86"
     stroke="#cccccc"
     stroke-width="0.214"
     stroke-linejoin="bevel"
     id="g643"><path
       d="m 37.657,36.702 9.322,3.393 v 10.957 l -9.322,-3.393 z"
       style="isolation:auto;mix-blend-mode:normal"
       color="#000000"
       overflow="visible"
       fill="#e9e9ff"
       id="path631" /><path
       d="m 28.196,40.145 v 10.957 l 9.46,-3.443 V 36.702 Z"
       style="isolation:auto;mix-blend-mode:normal"
       color="#000000"
       overflow="visible"
       fill="#353564"
       id="path633" /><path
       d="m 28.196,51.102 9.323,3.393 9.46,-3.443 -9.322,-3.393 z"
       style="isolation:auto;mix-blend-mode:normal"
       color="#000000"
       overflow="visible"
       fill="#afafde"
       id="path635" /><path
       d="m 28.196,40.145 9.323,3.393 9.46,-3.443 -9.322,-3.393 z"
       fill="#f7f7f4"
       id="path637" /><path
       d="m 37.519,43.538 v 10.957 l 9.46,-3.443 V 40.095 Z"
       fill="#ffd242"
       id="path639" /><path
       d="m 28.196,40.145 9.323,3.393 v 10.957 l -9.323,-3.393 z"
       fill="#efeeea"
       id="path641" /></g><g
     fill="#a29d86"
     stroke="#cccccc"
     stroke-width="0.214"
     stroke-linejoin="bevel"
     id="g657"><path
       style="isolation:auto;mix-blend-mode:normal"
       d="M 28.293,40.107 37.616,43.5 V 54.457 L 28.293,51.064 Z"
       color="#000000"
       overflow="visible"
       fill="#e9e9ff"
       id="path645" /><path
       style="isolation:auto;mix-blend-mode:normal"
       d="m 18.833,43.55 v 10.957 l 9.46,-3.443 V 40.107 Z"
       color="#000000"
       overflow="visible"
       fill="#353564"
       id="path647" /><path
       style="isolation:auto;mix-blend-mode:normal"
       d="m 18.833,54.507 9.322,3.393 9.46,-3.443 -9.322,-3.393 z"
       color="#000000"
       overflow="visible"
       fill="#afafde"
       id="path649" /><path
       d="m 18.833,43.55 9.322,3.393 9.46,-3.443 -9.322,-3.393 z"
       fill="#f7f7f4"
       id="path651" /><path
       d="M 28.155,46.943 V 57.9 l 9.46,-3.443 V 43.5 Z"
       fill="#ffffff"
       id="path653" /><path
       d="m 18.833,43.55 9.322,3.393 V 57.9 l -9.322,-3.393 z"
       fill="#efeeea"
       id="path655" /></g><g
     fill="#a29d86"
     stroke="#cccccc"
     stroke-width="0.214"
     stroke-linejoin="bevel"
     id="g671"><path
       d="m 56.383,18.826 9.323,3.394 v 10.957 l -9.323,-3.394 z"
       style="isolation:auto;mix-blend-mode:normal"
       color="#000000"
       overflow="visible"
       fill="#e9e9ff"
       id="path659" /><path
       d="m 46.923,22.27 v 10.957 l 9.46,-3.444 V 18.826 Z"
       style="isolation:auto;mix-blend-mode:normal"
       color="#000000"
       overflow="visible"
       fill="#353564"
       id="path661" /><path
       d="m 46.923,33.227 9.322,3.393 9.46,-3.443 -9.322,-3.394 z"
       style="isolation:auto;mix-blend-mode:normal"
       color="#000000"
       overflow="visible"
       fill="#afafde"
       id="path663" /><path
       d="m 46.923,22.27 9.322,3.393 9.46,-3.443 -9.322,-3.394 z"
       fill="#f7f7f4"
       id="path665" /><path
       d="M 56.245,25.663 V 36.62 l 9.46,-3.443 V 22.22 Z"
       fill="#ffd242"
       id="path667" /><path
       d="m 46.923,22.27 9.322,3.393 V 36.62 l -9.322,-3.393 z"
       fill="#efeeea"
       id="path669" /></g><g
     fill="#a29d86"
     stroke="#cccccc"
     stroke-width="0.214"
     stroke-linejoin="bevel"
     id="g685"><path
       style="isolation:auto;mix-blend-mode:normal"
       d="m 56.383,7.76 9.323,3.394 V 22.11 l -9.323,-3.393 z"
       color="#000000"
       overflow="visible"
       fill="#e9e9ff"
       id="path673" /><path
       style="isolation:auto;mix-blend-mode:normal"
       d="m 46.923,11.204 v 10.957 l 9.46,-3.443 V 7.76 Z"
       color="#000000"
       overflow="visible"
       fill="#353564"
       id="path675" /><path
       style="isolation:auto;mix-blend-mode:normal"
       d="m 46.923,22.161 9.322,3.393 9.46,-3.443 -9.322,-3.393 z"
       color="#000000"
       overflow="visible"
       fill="#afafde"
       id="path677" /><path
       d="m 46.923,11.204 9.322,3.393 9.46,-3.443 -9.322,-3.393 z"
       fill="#ffc91d"
       id="path679" /><path
       d="m 56.245,14.597 v 10.957 l 9.46,-3.443 V 11.154 Z"
       fill="#ffd242"
       id="path681" /><path
       d="m 46.923,11.204 9.322,3.393 v 10.957 l -9.322,-3.393 z"
       fill="#efeeea"
       id="path683" /></g><g
     fill="#a29d86"
     stroke="#cccccc"
     stroke-width="0.214"
     stroke-linejoin="bevel"
     id="g699"><path
       style="isolation:auto;mix-blend-mode:normal"
       d="m 47.02,22.231 9.322,3.393 V 36.581 L 47.02,33.188 Z"
       color="#000000"
       overflow="visible"
       fill="#e9e9ff"
       id="path687" /><path
       style="isolation:auto;mix-blend-mode:normal"
       d="m 37.56,25.675 v 10.957 l 9.46,-3.444 V 22.231 Z"
       color="#000000"
       overflow="visible"
       fill="#353564"
       id="path689" /><path
       style="isolation:auto;mix-blend-mode:normal"
       d="m 37.56,36.632 9.322,3.393 9.46,-3.444 -9.322,-3.393 z"
       color="#000000"
       overflow="visible"
       fill="#afafde"
       id="path691" /><path
       d="m 37.56,25.675 9.322,3.393 9.46,-3.444 -9.322,-3.393 z"
       fill="#f7f7f4"
       id="path693" /><path
       d="m 46.882,29.068 v 10.957 l 9.46,-3.444 V 25.624 Z"
       fill="#ffd242"
       id="path695" /><path
       d="m 37.56,25.675 9.322,3.393 v 10.957 l -9.323,-3.393 z"
       fill="#efeeea"
       id="path697" /></g><g
     fill="#a29d86"
     stroke="#cccccc"
     stroke-width="0.214"
     stroke-linejoin="bevel"
     id="g713"><path
       d="m 47.02,11.166 9.322,3.393 V 25.516 L 47.02,22.123 Z"
       style="isolation:auto;mix-blend-mode:normal"
       color="#000000"
       overflow="visible"
       fill="#e9e9ff"
       id="path701" /><path
       d="m 37.56,14.609 v 10.957 l 9.46,-3.443 V 11.166 Z"
       style="isolation:auto;mix-blend-mode:normal"
       color="#000000"
       overflow="visible"
       fill="#353564"
       id="path703" /><path
       d="m 37.56,25.566 9.322,3.393 9.46,-3.443 -9.322,-3.393 z"
       style="isolation:auto;mix-blend-mode:normal"
       color="#000000"
       overflow="visible"
       fill="#afafde"
       id="path705" /><path
       d="m 37.56,14.609 9.322,3.393 9.46,-3.443 -9.322,-3.393 z"
       fill="#f7f7f4"
       id="path707" /><path
       d="M 46.882,18.002 V 28.96 l 9.46,-3.443 V 14.559 Z"
       fill="#3775a9"
       id="path709" /><path
       d="m 37.56,14.609 9.322,3.393 V 28.96 l -9.323,-3.393 z"
       fill="#efeeea"
       id="path711" /></g><g
     fill="#a29d86"
     stroke="#cccccc"
     stroke-width="0.214"
     stroke-linejoin="bevel"
     id="g727"><path
       style="isolation:auto;mix-blend-mode:normal"
       d="m 47.02,0.1 9.322,3.393 V 14.45 L 47.02,11.057 Z"
       color="#000000"
       overflow="visible"
       fill="#e9e9ff"
       id="path715" /><path
       style="isolation:auto;mix-blend-mode:normal"
       d="M 37.56,3.543 V 14.5 l 9.46,-3.443 V 0.1 Z"
       color="#000000"
       overflow="visible"
       fill="#353564"
       id="path717" /><path
       style="isolation:auto;mix-blend-mode:normal"
       d="m 37.56,14.5 9.322,3.393 9.46,-3.443 -9.322,-3.393 z"
       color="#000000"
       overflow="visible"
       fill="#afafde"
       id="path719" /><path
       d="M 37.56,3.543 46.882,6.936 56.342,3.493 47.02,0.1 Z"
       fill="#2f6491"
       id="path721" /><path
       d="m 46.882,6.936 v 10.957 l 9.46,-3.443 V 3.493 Z"
       fill="#3775a9"
       id="path723" /><path
       d="m 37.56,3.543 9.322,3.393 V 17.893 L 37.559,14.5 Z"
       fill="#efeeea"
       id="path725" /></g><g
     fill="#a29d86"
     stroke="#cccccc"
     stroke-width="0.214"
     stroke-linejoin="bevel"
     id="g741"><path
       d="m 37.657,25.636 9.322,3.393 v 10.957 l -9.322,-3.393 z"
       style="isolation:auto;mix-blend-mode:normal"
       color="#000000"
       overflow="visible"
       fill="#e9e9ff"
       id="path729" /><path
       d="m 28.196,29.08 v 10.956 l 9.46,-3.443 V 25.636 Z"
       style="isolation:auto;mix-blend-mode:normal"
       color="#000000"
       overflow="visible"
       fill="#353564"
       id="path731" /><path
       d="m 28.196,40.036 9.323,3.394 9.46,-3.444 -9.322,-3.393 z"
       style="isolation:auto;mix-blend-mode:normal"
       color="#000000"
       overflow="visible"
       fill="#afafde"
       id="path733" /><path
       d="m 28.196,29.08 9.323,3.393 9.46,-3.444 -9.322,-3.393 z"
       fill="#f7f7f4"
       id="path735" /><path
       d="M 37.519,32.473 V 43.43 l 9.46,-3.444 V 29.03 Z"
       fill="#ffd242"
       id="path737" /><path
       d="m 28.196,29.08 9.323,3.393 V 43.43 l -9.323,-3.394 z"
       fill="#efeeea"
       id="path739" /></g><g
     fill="#a29d86"
     stroke="#cccccc"
     stroke-width="0.214"
     stroke-linejoin="bevel"
     id="g755"><path
       style="isolation:auto;mix-blend-mode:normal"
       d="m 37.657,14.57 9.322,3.394 V 28.92 l -9.322,-3.394 z"
       color="#000000"
       overflow="visible"
       fill="#e9e9ff"
       id="path743" /><path
       style="isolation:auto;mix-blend-mode:normal"
       d="M 28.196,18.014 V 28.97 l 9.46,-3.444 V 14.57 Z"
       color="#000000"
       overflow="visible"
       fill="#353564"
       id="path745" /><path
       style="isolation:auto;mix-blend-mode:normal"
       d="m 28.196,28.97 9.323,3.394 9.46,-3.443 -9.322,-3.394 z"
       color="#000000"
       overflow="visible"
       fill="#afafde"
       id="path747" /><path
       d="m 28.196,18.014 9.323,3.393 9.46,-3.443 -9.322,-3.394 z"
       fill="#f7f7f4"
       id="path749" /><path
       d="m 37.519,21.407 v 10.957 l 9.46,-3.443 V 17.964 Z"
       fill="#3775a9"
       id="path751" /><path
       d="m 28.196,18.014 9.323,3.393 v 10.957 l -9.323,-3.393 z"
       fill="#efeeea"
       id="path753" /></g><g
     fill="#a29d86"
     stroke="#cccccc"
     stroke-width="0.214"
     stroke-linejoin="bevel"
     id="g769"><path
       style="isolation:auto;mix-blend-mode:normal"
       d="m 28.293,29.04 9.323,3.394 v 10.957 l -9.323,-3.393 z"
       color="#000000"
       overflow="visible"
       fill="#e9e9ff"
       id="path757" /><path
       style="isolation:auto;mix-blend-mode:normal"
       d="m 18.833,32.484 v 10.957 l 9.46,-3.443 V 29.04 Z"
       color="#000000"
       overflow="visible"
       fill="#353564"
       id="path759" /><path
       style="isolation:auto;mix-blend-mode:normal"
       d="m 18.833,43.441 9.322,3.393 9.46,-3.443 -9.322,-3.393 z"
       color="#000000"
       overflow="visible"
       fill="#afafde"
       id="path761" /><path
       d="m 18.833,32.484 9.322,3.393 9.46,-3.443 -9.322,-3.393 z"
       fill="#f7f7f4"
       id="path763" /><path
       d="m 28.155,35.877 v 10.957 l 9.46,-3.443 V 32.434 Z"
       fill="#3775a9"
       id="path765" /><path
       d="m 18.833,32.484 9.322,3.393 v 10.957 l -9.322,-3.393 z"
       fill="#2f6491"
       id="path767" /></g><g
     fill="#a29d86"
     stroke="#cccccc"
     stroke-width="0.214"
     stroke-linejoin="bevel"
     id="g783"><path
       d="m 28.293,17.975 9.323,3.393 v 10.957 l -9.323,-3.393 z"
       style="isolation:auto;mix-blend-mode:normal"
       color="#000000"
       overflow="visible"
       fill="#e9e9ff"
       id="path771" /><path
       d="m 18.833,21.419 v 10.957 l 9.46,-3.444 V 17.975 Z"
       style="isolation:auto;mix-blend-mode:normal"
       color="#000000"
       overflow="visible"
       fill="#353564"
       id="path773" /><path
       d="m 18.833,32.376 9.322,3.393 9.46,-3.444 -9.322,-3.393 z"
       style="isolation:auto;mix-blend-mode:normal"
       color="#000000"
       overflow="visible"
       fill="#afafde"
       id="path775" /><path
       d="m 18.833,21.419 9.322,3.393 9.46,-3.444 -9.322,-3.393 z"
       fill="#2f6491"
       id="path777" /><path
       d="m 28.155,24.812 v 10.957 l 9.46,-3.444 V 21.368 Z"
       fill="#3775a9"
       id="path779" /><path
       d="m 18.833,21.419 9.322,3.393 v 10.957 l -9.322,-3.393 z"
       fill="#2f6491"
       id="path781" /></g><g
     transform="matrix(0.65177,0,0,0.65177,-1683.66,-513.275)"
     id="g801"><g
       fill="#a29d86"
       stroke="#cccccc"
       stroke-width="0.328"
       stroke-linejoin="bevel"
       id="g797"><path
         style="isolation:auto;mix-blend-mode:normal"
         d="m 2640.983,792.885 14.304,5.206 v 16.811 l -14.304,-5.206 z"
         color="#000000"
         overflow="visible"
         fill="#e9e9ff"
         id="path785" /><path
         style="isolation:auto;mix-blend-mode:normal"
         d="m 2626.468,798.168 v 16.811 l 14.515,-5.283 v -16.811 z"
         color="#000000"
         overflow="visible"
         fill="#353564"
         id="path787" /><path
         style="isolation:auto;mix-blend-mode:normal"
         d="m 2626.468,814.979 14.304,5.206 14.515,-5.283 -14.304,-5.206 z"
         color="#000000"
         overflow="visible"
         fill="#afafde"
         id="path789" /><path
         d="m 2626.468,798.168 14.304,5.206 14.515,-5.283 -14.304,-5.206 z"
         fill="#2f6491"
         id="path791" /><path
         d="m 2640.772,803.374 v 16.811 l 14.515,-5.283 v -16.811 z"
         fill="#3775a9"
         id="path793" /><path
         d="m 2626.468,798.168 14.304,5.206 v 16.811 l -14.304,-5.206 z"
         fill="#2f6491"
         id="path795" /></g><circle
       transform="matrix(0.9397,-0.34202283,0,1,0,0)"
       cy="1772.922"
       cx="2816.0171"
       r="2.967"
       fill="#ffffff"
       id="circle799" /></g></g></g>
</svg>
